name pl10_filtered_grf.mot
datacolumns 37
datarows 9
range 0.492000 0.496000
endheader
time	1_ground_force_vx	1_ground_force_vy	1_ground_force_vz	1_ground_force_px	1_ground_force_py	1_ground_force_pz	1_ground_torque_x	1_ground_torque_y	1_ground_torque_z	2_ground_force_vx	2_ground_force_vy	2_ground_force_vz	2_ground_force_px	2_ground_force_py	2_ground_force_pz	2_ground_torque_x	2_ground_torque_y	2_ground_torque_z	3_ground_force_vx	3_ground_force_vy	3_ground_force_vz	3_ground_force_px	3_ground_force_py	3_ground_force_pz	3_ground_torque_x	3_ground_torque_y	3_ground_torque_z	4_ground_force_vx	4_ground_force_vy	4_ground_force_vz	4_ground_force_px	4_ground_force_py	4_ground_force_pz	4_ground_torque_x	4_ground_torque_y	4_ground_torque_z
            0.492000	           -0.000299	            0.003749	            0.002561	            0.136890	            0.000000	            0.232777	            0.002474	            0.000945	           -0.001175	           -0.001262	            0.008515	            0.005192	           -0.137729	            0.000000	            0.252797	            0.001236	           -0.000957	            0.001306	           21.146625	            1.473257	            0.367398	            0.375618	            1.311370	            1.914221	           -0.104015	           -0.007247	           -0.001807	          -19.487456	           -0.806202	            2.475968	           -0.265850	            1.310059	            1.925061	            0.016126	            0.000667	           -0.002049
            0.492500	           -0.000092	            0.002515	            0.001483	            0.136890	            0.000000	            0.232777	            0.001648	            0.000473	           -0.000783	           -0.001392	            0.007730	            0.004982	           -0.137729	            0.000000	            0.252797	            0.001131	           -0.000896	            0.001175	           21.178224	            1.482260	            0.367478	            0.375619	            1.311366	            1.914211	           -0.104046	           -0.007282	           -0.001805	          -19.470486	           -0.784923	            2.482139	           -0.265845	            1.310057	            1.925050	            0.016060	            0.000647	           -0.002047
            0.493000	            0.000133	            0.001149	            0.000299	            0.136890	            0.000000	            0.232777	            0.000734	           -0.000043	           -0.000349	           -0.001517	            0.006790	            0.004697	           -0.137729	            0.000000	            0.252797	            0.001005	           -0.000819	            0.001019	           21.211650	            1.491709	            0.366613	            0.375621	            1.311361	            1.914199	           -0.104057	           -0.007318	           -0.001798	          -19.452868	           -0.763618	            2.487111	           -0.265836	            1.310054	            1.925039	            0.016015	            0.000629	           -0.002048
            0.493500	            0.000376	           -0.000345	           -0.000989	            0.136890	            0.000000	            0.232777	           -0.000265	           -0.000603	            0.000125	           -0.001634	            0.005693	            0.004334	           -0.137729	            0.000000	            0.252797	            0.000856	           -0.000727	            0.000838	           21.246728	            1.501510	            0.365321	            0.375624	            1.311357	            1.914187	           -0.104048	           -0.007353	           -0.001789	          -19.434791	           -0.742431	            2.491012	           -0.265827	            1.310051	            1.925028	            0.015990	            0.000611	           -0.002050
            0.494000	            0.000634	           -0.001960	           -0.002372	            0.136890	            0.000000	            0.232777	           -0.001345	           -0.001202	            0.000637	           -0.001742	            0.004439	            0.003890	           -0.137729	            0.000000	            0.252797	            0.000685	           -0.000618	            0.000632	           21.283288	            1.511573	            0.363580	            0.375626	            1.311352	            1.914175	           -0.104018	           -0.007388	           -0.001777	          -19.416461	           -0.721495	            2.493849	           -0.265818	            1.310048	            1.925017	            0.015986	            0.000594	           -0.002053
            0.494500	            0.000907	           -0.003688	           -0.003844	            0.136890	            0.000000	            0.232777	           -0.002499	           -0.001838	            0.001184	           -0.001840	            0.003029	            0.003365	           -0.137729	            0.000000	            0.252797	            0.000491	           -0.000494	            0.000402	           21.321155	            1.521805	            0.361377	            0.375628	            1.311347	            1.914164	           -0.103965	           -0.007421	           -0.001762	          -19.398075	           -0.700929	            2.495638	           -0.265809	            1.310046	            1.925006	            0.016000	            0.000578	           -0.002058
            0.495000	            0.001192	           -0.005518	           -0.005396	            0.136890	            0.000000	            0.232777	           -0.003721	           -0.002506	            0.001764	           -0.001924	            0.001465	            0.002757	           -0.137729	            0.000000	            0.252797	            0.000276	           -0.000353	            0.000148	           21.360150	            1.532117	            0.358695	            0.375631	            1.311343	            1.914152	           -0.103890	           -0.007452	           -0.001745	          -19.379824	           -0.680839	            2.496403	           -0.265801	            1.310043	            1.924994	            0.016032	            0.000563	           -0.002065
            0.495500	            0.001488	           -0.007437	           -0.007014	            0.136890	            0.000000	            0.232777	           -0.005003	           -0.003201	            0.002372	           -0.001993	           -0.000246	            0.002066	           -0.137729	            0.000000	            0.252797	            0.000040	           -0.000196	           -0.000129	           21.400091	            1.542421	            0.355711	            0.375634	            1.311338	            1.914139	           -0.103792	           -0.007481	           -0.001725	          -19.361907	           -0.661316	            2.496052	           -0.265790	            1.310039	            1.924983	            0.016082	            0.000549	           -0.002073
            0.496000	            0.001791	           -0.009432	           -0.008688	            0.136890	            0.000000	            0.232777	           -0.006335	           -0.003917	            0.003004	           -0.002045	           -0.002098	            0.001294	           -0.137729	            0.000000	            0.252797	           -0.000217	           -0.000024	           -0.000427	           21.440802	            1.552633	            0.352226	            0.375637	            1.311333	            1.914127	           -0.103670	           -0.007507	           -0.001703	          -19.344479	           -0.642433	            2.494742	           -0.265779	            1.310036	            1.924972	            0.016146	            0.000536	           -0.002082
